<?xml version="1.0" standalone="no"?>
<!DOCTYPE svg PUBLIC "-//W3C//DTD SVG 20010904//EN"
 "http://www.w3.org/TR/2001/REC-SVG-20010904/DTD/svg10.dtd">
<svg version="1.0" xmlns="http://www.w3.org/2000/svg"
 width="1051.000000pt" height="322.000000pt" viewBox="0 0 1051.000000 322.000000"
 preserveAspectRatio="xMidYMid meet">
<metadata>
Created by potrace 1.13, written by Peter Selinger 2001-2015
</metadata>
<g transform="translate(0.000000,322.000000) scale(0.100000,-0.100000)"
fill="#000000" stroke="none">
<path d="M2382 3115 c-38 -45 -54 -100 -34 -119 4 -4 7 -11 8 -14 3 -23 19
-42 34 -42 10 0 21 -7 24 -16 5 -13 16 -15 51 -11 63 7 61 -5 -22 -95 -9 -10
-18 -16 -21 -13 -8 7 -46 -47 -60 -85 -30 -79 -34 -107 -28 -173 4 -45 3 -66
-4 -62 -11 7 -93 -47 -126 -82 -12 -12 -23 -20 -26 -18 -3 3 -18 -10 -34 -27
-16 -18 -27 -33 -24 -33 4 0 -32 -45 -62 -76 -10 -10 -24 -33 -33 -51 -8 -18
-35 -69 -60 -113 -46 -84 -56 -119 -30 -109 8 3 17 13 20 22 6 21 109 129 153
162 19 14 40 31 48 38 8 7 14 10 14 6 0 -4 8 0 18 9 10 10 22 14 25 10 4 -3 7
-1 7 5 0 7 7 12 15 12 8 0 15 4 15 9 0 5 11 8 25 6 14 -1 29 4 33 11 5 9 32
15 74 18 36 2 70 6 74 9 12 7 71 0 109 -13 35 -12 91 -61 126 -110 13 -19 24
-37 24 -40 0 -3 12 -27 25 -55 35 -70 35 -185 1 -233 -12 -18 -24 -38 -25 -45
-5 -21 -25 -61 -40 -81 -17 -20 -46 -15 -46 8 0 8 -3 16 -7 18 -5 2 -17 21
-28 43 -11 22 -22 42 -25 45 -12 12 -50 90 -50 103 0 40 -52 25 -143 -39 -26
-19 -50 -34 -55 -34 -8 -1 -82 -68 -82 -75 0 -2 -11 -15 -25 -29 -14 -14 -25
-35 -25 -46 0 -12 -6 -28 -14 -35 -15 -15 -22 -157 -9 -178 4 -6 8 -14 9 -17
1 -3 5 -20 9 -38 4 -18 12 -35 16 -38 5 -3 7 -10 4 -15 -4 -5 -1 -9 4 -9 6 0
11 -6 11 -14 0 -8 7 -16 15 -20 8 -3 15 -14 15 -24 0 -11 7 -25 15 -32 8 -7
15 -18 15 -26 0 -7 6 -19 13 -26 39 -42 59 -111 38 -134 -5 -5 -27 -45 -50
-89 -44 -85 -55 -104 -71 -132 -6 -10 -16 -29 -23 -43 -28 -57 -31 -58 -187
-57 l-145 2 0 110 c0 61 -3 115 -7 120 -4 6 -3 16 1 23 6 10 7 137 1 167 -1 6
-1 12 0 15 6 17 5 218 -2 233 -5 9 -5 17 0 17 5 0 7 102 5 228 -2 125 -3 236
-2 247 0 27 0 56 -1 150 0 11 0 67 1 125 0 58 0 114 0 125 0 11 -2 96 -3 190
-3 162 -2 171 19 203 13 18 23 37 23 42 0 6 7 10 16 10 9 0 14 5 12 12 -4 11
-13 14 -72 23 -16 2 -33 10 -38 17 -4 7 -8 9 -8 4 0 -4 -11 -1 -25 8 -14 9
-25 13 -25 9 0 -4 -16 14 -35 41 -19 27 -35 59 -35 71 0 12 -3 25 -7 29 -5 4
-8 11 -9 14 -9 63 -18 90 -28 86 -13 -5 -20 -104 -8 -104 4 0 7 -620 7 -1377
0 -894 4 -1378 10 -1380 6 -1 26 12 46 30 19 17 52 45 72 61 20 16 37 36 37
43 0 7 4 13 8 13 17 0 38 66 37 113 -1 26 1 47 4 48 4 1 58 2 121 4 115 3 151
0 148 -13 -5 -25 47 -152 63 -152 5 0 9 -5 9 -11 0 -21 94 -108 118 -109 12 0
22 -4 22 -9 0 -5 8 -8 18 -7 9 2 20 -1 23 -6 9 -15 170 -13 179 2 4 6 13 10
21 9 22 -4 69 12 69 24 0 6 3 8 6 4 6 -6 17 1 65 45 16 16 33 28 37 28 12 1
72 88 72 105 0 8 5 15 10 15 6 0 9 3 8 8 -1 4 1 21 5 37 l8 31 246 -1 247 -1
8 -29 c5 -17 11 -37 13 -45 16 -53 31 -90 37 -90 5 0 8 -6 8 -12 0 -12 62 -75
117 -122 21 -17 22 -17 33 4 7 13 8 25 3 29 -12 8 -14 52 -4 66 4 5 7 46 5 90
-2 44 -3 91 -3 105 5 505 4 637 -5 652 -7 11 -6 21 1 30 5 7 8 27 6 43 -6 45
-6 58 0 83 3 12 1 22 -4 22 -6 0 -6 7 -1 18 5 9 10 43 11 75 2 45 -1 57 -12
57 -9 0 -19 -14 -23 -32 -4 -18 -9 -35 -10 -38 -1 -3 -5 -15 -9 -27 -4 -13
-11 -23 -15 -23 -4 0 -11 -11 -14 -24 -15 -59 -117 -142 -198 -160 -38 -9 -35
-22 7 -36 23 -8 35 -18 35 -30 0 -10 4 -21 8 -24 5 -3 8 -83 7 -178 l0 -173
-95 0 c-87 0 -95 2 -99 20 -2 11 -7 22 -11 25 -4 3 -22 35 -39 73 -17 37 -35
67 -40 67 -5 0 -15 21 -22 46 -9 30 -22 50 -36 57 -12 5 -20 13 -18 17 6 10
-24 70 -36 70 -5 0 -9 8 -9 19 0 10 -7 24 -15 31 -8 7 -15 23 -15 36 0 13 -4
24 -9 24 -16 0 -111 170 -111 197 0 14 10 39 22 56 13 18 23 34 24 37 2 16 29
60 36 60 4 0 8 9 8 20 0 11 4 20 9 20 5 0 13 10 17 23 3 12 12 29 19 37 13 16
27 61 30 95 1 11 5 27 8 35 23 63 29 151 14 210 -4 14 -9 41 -11 60 -2 19 -8
48 -15 63 -6 16 -11 37 -11 47 0 10 -7 20 -15 24 -8 3 -15 11 -15 19 0 7 -13
26 -30 42 -16 16 -30 34 -30 39 0 6 -18 20 -40 30 -22 10 -42 27 -45 37 -3 10
-19 20 -34 24 -16 3 -37 15 -47 26 -9 10 -21 19 -26 19 -5 0 -16 7 -24 15 -9
8 -24 15 -35 15 -11 0 -22 7 -25 15 -4 8 -12 15 -18 15 -16 0 -79 75 -82 97
-2 9 0 22 4 27 3 6 7 17 9 25 1 8 5 17 10 20 4 3 9 13 11 21 2 8 15 40 30 70
14 30 25 58 24 63 -1 4 2 7 6 7 4 0 9 36 10 80 2 76 1 80 -28 110 -16 17 -30
33 -30 36 0 36 -109 43 -138 9z m56 -1494 c12 -21 22 -46 22 -55 0 -9 4 -16 8
-16 5 0 19 -14 32 -32 28 -38 31 -96 7 -110 -9 -5 -17 -16 -17 -23 0 -27 -25
-15 -39 18 -8 17 -22 41 -31 52 -18 22 -34 55 -32 68 1 4 -2 7 -8 7 -16 0 -11
70 7 101 10 16 20 29 23 29 4 0 16 -17 28 -39z m242 -441 c0 -3 10 -17 23 -30
12 -14 22 -27 21 -30 -2 -13 9 -40 17 -40 5 0 20 -24 34 -52 25 -53 32 -66 54
-103 6 -11 14 -28 17 -37 4 -10 10 -18 15 -18 5 0 9 -3 8 -7 -2 -14 13 -53 20
-53 4 0 8 -7 8 -16 0 -12 -10 -15 -51 -12 -47 3 -51 5 -54 31 -2 15 -7 27 -12
27 -5 0 -12 10 -16 23 -3 12 -19 41 -35 65 -16 24 -29 47 -29 53 0 5 -5 9 -11
9 -5 0 -7 5 -4 10 3 6 1 10 -4 10 -6 0 -11 7 -11 15 0 9 -7 18 -15 21 -8 4
-15 15 -15 25 0 10 -4 19 -8 19 -16 0 -28 64 -17 88 5 12 13 22 17 22 5 0 8 7
8 17 0 13 4 11 20 -7 11 -13 20 -26 20 -30z m-188 -274 c7 -14 24 -46 38 -73
14 -26 41 -75 61 -109 54 -90 48 -161 -20 -220 -14 -13 -32 -24 -38 -24 -7 0
-13 -4 -13 -9 0 -4 -22 -8 -50 -7 -27 0 -50 4 -50 8 0 4 -6 8 -13 8 -21 0 -56
35 -78 77 -25 47 -19 97 16 153 14 22 25 46 25 54 0 8 7 16 15 20 8 3 15 12
15 20 0 8 14 35 30 59 17 25 30 50 30 56 0 19 18 12 32 -13z"/>
<path d="M6739 1979 c-4 -12 -4 -1048 0 -1085 1 -9 96 -11 357 -10 195 1 357
0 359 -4 2 -3 38 -3 82 0 43 3 158 4 256 3 l178 -2 -1 62 c-1 34 -1 71 -1 82
1 11 2 38 2 60 0 68 5 87 24 101 25 19 61 18 69 -2 3 -9 6 -102 6 -207 l0
-192 -667 0 -668 0 0 -95 c-1 -52 1 -104 3 -115 3 -20 11 -20 605 -19 331 1
610 5 619 9 9 4 23 3 30 -1 7 -5 27 -7 45 -5 27 2 33 -1 33 -17 0 -10 3 -22 8
-26 4 -4 7 -20 8 -34 1 -26 11 -53 39 -101 17 -30 92 -100 132 -123 29 -17 31
-17 35 0 2 9 3 47 3 85 -1 37 1 67 4 67 3 0 16 -18 29 -40 12 -22 27 -40 32
-40 6 0 10 -7 10 -16 0 -8 4 -13 9 -10 5 3 21 -6 35 -19 15 -14 38 -25 52 -25
13 0 24 -4 24 -10 0 -13 147 -13 155 0 3 6 17 8 31 6 13 -3 24 0 24 5 0 5 6 9
14 9 8 0 16 7 20 15 3 8 12 15 21 15 8 0 15 7 15 15 0 8 5 15 10 15 17 0 45
33 63 75 10 22 23 49 28 59 6 10 12 50 14 88 1 38 5 71 7 74 3 2 2 24 -3 47
-4 23 -4 47 0 52 6 9 5 191 -2 350 -2 33 0 71 3 85 7 28 2 60 -8 60 -7 0 -37
-48 -40 -63 -1 -11 -88 -77 -101 -77 -6 0 -11 -4 -11 -9 0 -7 -43 -25 -46 -18
0 1 -8 -4 -17 -12 -10 -7 -17 -10 -17 -5 0 5 -4 3 -8 -3 -5 -7 -20 -14 -35
-15 -37 -3 -34 -26 6 -43 52 -22 58 -49 54 -257 -2 -100 -6 -192 -9 -203 -4
-11 -7 -23 -7 -27 -1 -12 -80 -91 -110 -110 -14 -10 -41 -18 -60 -18 -50 0
-111 21 -111 38 0 9 -3 13 -6 9 -10 -9 -54 35 -54 55 0 10 -4 18 -8 18 -4 0
-7 160 -7 356 0 196 -3 358 -7 360 -5 3 -8 20 -8 38 0 53 -53 123 -116 153
-30 14 -54 29 -54 34 0 4 -9 6 -20 4 -11 -2 -20 0 -20 4 0 5 -20 8 -45 7 -25
0 -45 -4 -45 -8 0 -4 -5 -8 -12 -8 -25 0 -104 -45 -135 -77 -18 -18 -30 -33
-27 -33 2 0 -4 -10 -16 -22 -11 -12 -20 -34 -20 -48 0 -15 -3 -30 -7 -34 -4
-4 -8 -22 -9 -39 -1 -18 -2 -38 -3 -44 -1 -10 -87 -13 -396 -13 l-395 0 1 223
c0 192 3 226 18 252 9 16 28 32 41 35 51 12 28 33 -47 42 -7 1 -13 5 -13 10 0
4 -6 8 -12 8 -38 1 -124 113 -142 184 -3 14 -11 26 -16 26 -6 0 -10 9 -10 19
0 11 -5 23 -10 26 -6 4 -8 10 -5 14 2 5 -2 16 -9 26 -10 14 -14 15 -17 4z"/>
<path d="M4968 1693 c-16 -8 -29 -17 -29 -21 -6 -31 -4 -112 3 -112 4 0 8 -7
8 -15 0 -12 10 -15 40 -13 31 1 46 9 67 34 35 41 38 52 16 73 -10 9 -23 25
-28 35 -16 27 -46 35 -77 19z"/>
<path d="M5180 1690 c0 -6 -9 -10 -21 -10 -11 0 -18 -4 -15 -9 4 -5 1 -11 -6
-13 -21 -7 -14 -82 11 -107 27 -27 78 -27 111 0 36 30 35 93 -3 123 -28 23
-77 33 -77 16z"/>
<path d="M6334 1666 c-28 -46 -24 -83 13 -123 37 -41 133 12 133 73 0 19 -5
34 -11 34 -5 0 -7 5 -4 11 4 6 -2 13 -14 16 -12 3 -21 9 -21 15 0 5 -18 8 -39
7 -32 -2 -42 -9 -57 -33z"/>
<path d="M1473 1613 c-4 -10 -15 -27 -25 -37 -10 -11 -18 -23 -18 -27 0 -4
-20 -18 -45 -30 -25 -12 -45 -26 -45 -30 0 -6 -52 -30 -72 -33 -3 -1 -10 -4
-14 -8 -4 -5 -20 -8 -36 -8 -18 0 -28 -5 -28 -15 0 -9 9 -15 25 -15 13 0 35
-12 49 -27 l25 -27 1 -288 1 -288 -81 0 -80 0 -1 28 c-1 15 -2 180 -3 367 -1
187 -5 341 -10 343 -9 3 -30 -28 -42 -60 -3 -10 -10 -18 -15 -18 -5 0 -9 -6
-9 -12 0 -15 -114 -71 -175 -87 -68 -18 -72 -26 -26 -47 23 -10 47 -30 54 -44
9 -18 12 -89 12 -245 l0 -220 -75 0 -75 0 0 307 c0 169 -3 309 -7 313 -3 3
-15 -9 -26 -27 -29 -46 -99 -108 -122 -108 -10 0 -25 -6 -32 -12 -7 -7 -23
-14 -36 -16 -33 -5 -92 -31 -92 -41 0 -5 12 -11 28 -14 63 -13 66 -22 70 -174
4 -170 4 -165 2 -238 -2 -33 -2 -100 0 -150 2 -91 -6 -145 -20 -145 -5 0 -12
-10 -15 -22 -4 -13 -27 -41 -51 -64 -36 -34 -49 -40 -75 -36 -21 3 -30 1 -25
-6 4 -6 -2 -10 -14 -9 -11 1 -20 5 -20 9 0 4 -13 8 -30 8 -16 0 -30 5 -30 10
0 6 -6 10 -14 10 -8 0 -23 14 -33 30 -9 17 -20 30 -24 30 -4 0 -11 15 -15 33
-7 31 -8 31 -14 7 -3 -14 -3 -27 2 -28 4 -2 8 -14 8 -27 0 -12 7 -28 15 -35 8
-7 15 -18 15 -25 0 -26 99 -102 134 -103 5 0 12 -6 17 -13 12 -20 193 -16 214
5 9 9 24 16 32 16 9 0 32 18 52 39 69 76 91 112 91 150 0 16 4 32 9 35 4 3 7
17 6 31 -2 14 0 26 3 26 33 6 221 4 235 -3 9 -5 17 -5 17 -1 0 4 107 8 237 8
l238 0 3 538 c2 513 -1 582 -25 520z"/>
<path d="M6205 1513 c-5 -10 -9 -25 -10 -33 -1 -8 -8 -28 -15 -45 -7 -16 -12
-36 -11 -42 1 -7 -3 -13 -9 -13 -5 0 -10 -6 -10 -12 -1 -17 -35 -58 -49 -58
-6 0 -11 -4 -11 -10 0 -5 -7 -10 -17 -10 -9 0 -13 -3 -10 -7 6 -5 -66 -41
-115 -57 -24 -7 -23 -26 0 -26 11 0 27 -9 37 -20 18 -20 19 -43 16 -315 l-1
-80 -75 0 -75 0 0 363 c0 287 -3 363 -12 360 -7 -3 -14 -13 -16 -24 -3 -16 -8
-32 -17 -54 -2 -3 -6 -15 -10 -27 -4 -13 -12 -23 -18 -23 -6 0 -8 -3 -4 -6 3
-4 -11 -22 -31 -41 -44 -42 -122 -97 -122 -86 0 4 -5 2 -12 -5 -7 -7 -22 -12
-35 -12 -35 0 -27 -23 15 -42 l38 -18 1 -193 1 -192 -595 0 -595 0 -29 35
c-16 19 -29 40 -29 48 0 7 -6 12 -12 10 -7 -3 -14 -25 -16 -51 -2 -26 -7 -47
-12 -47 -5 0 -7 -7 -4 -15 4 -8 1 -15 -5 -15 -6 0 -11 -11 -11 -24 0 -31 -77
-112 -126 -132 -64 -27 -37 -39 82 -37 60 1 123 2 139 2 17 0 466 -1 1000 -2
l969 -2 12 -25 c27 -57 35 -77 38 -93 1 -9 5 -20 9 -23 4 -4 7 -16 7 -26 0
-10 5 -18 10 -18 6 0 10 -6 10 -12 1 -17 35 -58 49 -58 6 0 11 -4 11 -9 0 -17
69 -51 77 -38 12 20 9 1248 -4 1258 -13 12 -22 1 -18 -23 2 -10 -1 -18 -6 -18
-5 0 -9 -11 -9 -24 0 -14 -7 -31 -15 -40 -8 -8 -15 -22 -15 -31 0 -8 -7 -18
-15 -21 -8 -4 -15 -12 -15 -19 0 -17 -44 -52 -87 -70 -18 -8 -33 -19 -33 -24
0 -6 -12 -11 -27 -11 -16 0 -35 -4 -43 -10 -12 -7 -11 -10 5 -15 71 -23 66 -3
63 -222 l-3 -198 -30 4 c-16 2 -52 4 -80 5 l-50 1 0 362 c-1 199 -3 365 -7
368 -3 3 -9 -2 -13 -12z"/>
<path d="M9583 1283 c-7 -2 -13 -11 -13 -18 0 -8 -16 -30 -35 -50 -31 -34 -41
-38 -103 -45 -37 -4 -78 -12 -89 -19 -12 -6 -31 -11 -42 -11 -12 0 -21 -5 -21
-11 0 -5 -4 -8 -9 -4 -5 3 -12 1 -16 -5 -3 -5 -13 -10 -20 -10 -8 0 -24 -8
-35 -17 -11 -10 -24 -18 -29 -18 -17 0 -111 -90 -111 -106 0 -9 -6 -22 -14
-28 -19 -16 -27 -82 -29 -243 -2 -132 -2 -138 18 -139 11 0 95 0 188 0 183 1
177 3 156 -60 -33 -99 -167 -165 -253 -124 -38 18 -126 103 -126 121 0 6 -7
17 -15 24 -12 10 -15 10 -15 -3 0 -9 5 -19 10 -22 6 -3 10 -11 10 -16 0 -6 -6
-7 -12 -3 -9 6 -9 3 0 -9 8 -9 11 -20 8 -26 -3 -5 1 -11 9 -15 8 -3 15 -12 15
-21 0 -8 5 -15 10 -15 6 0 10 -4 10 -10 0 -12 67 -80 79 -80 5 0 14 -6 20 -14
10 -11 36 -20 79 -27 4 0 12 -5 18 -10 15 -12 144 -9 144 3 0 5 8 8 18 6 35
-6 152 85 152 119 0 7 6 13 13 13 14 0 36 45 49 100 6 27 14 658 9 778 -1 22
-6 25 -28 15z m-193 -418 l0 -75 -78 0 c-43 0 -81 3 -85 6 -10 10 23 88 47
111 21 19 45 27 99 32 15 1 17 -9 17 -74z"/>
<path d="M10330 1283 c0 -5 -10 -20 -23 -35 -12 -14 -28 -35 -36 -46 -8 -11
-22 -19 -32 -17 -10 2 -21 0 -24 -6 -4 -5 -26 -9 -49 -9 -24 0 -59 -6 -77 -14
-19 -7 -43 -17 -54 -21 -11 -5 -22 -9 -25 -10 -3 0 -36 -16 -74 -34 -67 -32
-151 -105 -140 -122 3 -5 1 -9 -4 -9 -8 0 -23 -56 -26 -100 -1 -8 -4 -20 -8
-26 -4 -5 -6 -67 -6 -137 0 -121 1 -127 22 -132 11 -3 95 -6 185 -8 160 -2
164 -2 167 -24 2 -12 -1 -25 -6 -28 -6 -3 -10 -14 -10 -23 0 -33 -78 -101
-122 -106 -3 -1 -10 -4 -14 -8 -11 -12 -72 -10 -79 2 -4 6 -11 8 -16 5 -5 -4
-9 -1 -9 4 0 6 -8 11 -18 11 -25 0 -102 74 -102 98 0 11 -7 25 -15 32 -13 11
-15 9 -15 -13 0 -44 71 -177 95 -177 8 0 18 -6 22 -13 11 -18 59 -47 78 -47 8
0 15 -4 15 -9 0 -5 9 -7 20 -4 11 3 20 0 20 -6 0 -8 23 -11 70 -10 39 1 70 6
70 10 0 5 20 14 45 20 25 6 51 19 58 29 7 10 21 19 31 21 10 2 27 19 37 38 10
19 22 37 27 40 8 6 17 24 30 61 6 16 19 804 14 820 -4 12 -22 14 -22 3z m-215
-341 c6 -4 11 -40 12 -80 l1 -72 -26 1 c-15 1 -31 1 -37 -1 -5 -1 -26 -2 -46
-1 -44 1 -53 21 -32 73 10 26 28 43 61 61 54 29 54 29 67 19z"/>
<path d="M5956 484 c-38 -28 -18 -152 25 -153 10 -1 29 -1 42 -1 29 -1 67 47
67 86 0 30 -30 73 -53 76 -45 5 -66 3 -81 -8z"/>
<path d="M3195 318 c-30 -34 -39 -74 -19 -82 9 -3 13 -10 10 -15 -16 -25 89
-54 120 -33 40 26 41 110 1 143 -32 27 -82 21 -112 -13z"/>
<path d="M5963 281 c-13 -11 -23 -24 -23 -30 0 -6 -4 -11 -8 -11 -5 0 -8 -10
-6 -22 1 -13 3 -30 3 -38 1 -9 16 -23 34 -33 91 -49 167 49 98 126 -29 32 -66
35 -98 8z"/>
</g>
</svg>
